<svg viewBox="0 0 24 24" xmlns="http://www.w3.org/2000/svg" role="img" aria-hidden="true" class="_1rks9rr1 ejccx3im ejccx3u ejccx3j6 ejccx3u"><g color="neutralIconDefault"><g color="currentColor"><path fill="#008080" fill-rule="evenodd" d="M8.5 5v2.5h8V5zM7 4.5v3H6a1 1 0 0 0-1 1v3H4a1 1 0 0 0-1 1V16a1 1 0 0 0 1 1h1v3a1 1 0 0 0 1 1h9.5a5.5 5.5 0 0 0 .5-10.978V9h1a1 1 0 0 0 1-1V4.5a1 1 0 0 0-1-1H8a1 1 0 0 0-1 1m7.5 5.59V9h-8v2.5h5.225a5.5 5.5 0 0 1 2.775-1.41M10.6 13H4.5v2.5H10c0-.9.216-1.75.6-2.5m-.393 4H6.5v2.5h5.225a5.5 5.5 0 0 1-1.518-2.5m9.293-1.5a4 4 0 1 1-8 0 4 4 0 0 1 8 0" clip-rule="evenodd"></path></g></g></svg>