<svg xmlns="http://www.w3.org/2000/svg" viewBox="0 0 156 156" fill="white" data-testid="default-logo"><path fill="gray" d="M77.9994 94.25c7.7037 0 17.0325.8069 24.7366 2.4206 12.669 1.7693 21.384 10.2164 25.156 22.9874C115.971 133.926 98.0449 143 77.9994 143c-20.0865 0-38.045-9.111-49.9682-23.426 3.5935-12.33 11.9576-20.2691 25.2322-22.9034 7.7037-1.6137 17.0323-2.4206 24.736-2.4206Zm0-68.25c14.3594 0 25.9996 11.6406 25.9996 26v6.5c0 14.3594-11.6402 26-25.9996 26s-25.9999-11.6406-25.9999-26V52c0-14.3594 11.6405-26 25.9999-26Z"></path></svg>